# xmcd
#
# Track frame offsets: 
#        150
#        8132
#        24747
#        40840
#        55132
#        68855
#        82937
#        99710
#        114270
#        128832
#        143125
#
# Disc length: 2147 seconds
#
# Revision: 4
# Processed by: cddbd v1.5.2PL0 Copyright (c) Steve Scherf et al.
# Submitted via: ExactAudioCopy v0.95b4
#
DISCID=8a08610b
DTITLE=Racer X - Street Lethal
DYEAR=1986
DGENRE=Heavy Metal
TTITLE0=Frenzy
TTITLE1=Street Lethal
TTITLE2=Into The Night
TTITLE3=Blowin' Up The Radio
TTITLE4=Hotter Than Fire
TTITLE5=On The Loose
TTITLE6=Loud And Clear
TTITLE7=Y.R.O.
TTITLE8=Dangerous Love
TTITLE9=Getaway
TTITLE10=Rock It
EXTD=YEAR: 1986
EXTT0=
EXTT1=
EXTT2=
EXTT3=
EXTT4=
EXTT5=
EXTT6=
EXTT7=
EXTT8=
EXTT9=
EXTT10=
PLAYORDER=
